<svg width="25" height="24" viewBox="0 0 25 24" fill="none" xmlns="http://www.w3.org/2000/svg">
<g clip-path="url(#clip0_177_4615)">
<path d="M23.4673 1.33956C23.1187 0.986753 22.685 0.729811 22.2082 0.593559C21.7313 0.457308 21.2273 0.446352 20.745 0.561751L5.18878 3.83827C4.29292 3.96113 3.44915 4.33167 2.75249 4.90816C2.05584 5.48465 1.53397 6.24419 1.24566 7.10124C0.957343 7.9583 0.914039 8.87883 1.12062 9.75916C1.3272 10.6395 1.77546 11.4447 2.41492 12.084L4.08527 13.7534C4.17567 13.8438 4.24737 13.9511 4.29625 14.0692C4.34513 14.1873 4.37024 14.3139 4.37014 14.4418V17.5219C4.37228 17.9549 4.47198 18.382 4.66182 18.7712L4.65404 18.778L4.67932 18.8033C4.9642 19.3761 5.4295 19.8393 6.00354 20.1217L6.02882 20.147L6.03562 20.1392C6.42488 20.329 6.8519 20.4287 7.28498 20.4309H10.3651C10.6228 20.4307 10.87 20.5328 11.0525 20.7148L12.7219 22.3842C13.1696 22.8369 13.7025 23.1965 14.2899 23.4423C14.8773 23.6881 15.5075 23.8152 16.1442 23.8163C16.6748 23.8156 17.2018 23.7289 17.7047 23.5596C18.5539 23.2808 19.3083 22.7702 19.8828 22.0854C20.4573 21.4006 20.829 20.5689 20.9559 19.6842L24.2373 4.09398C24.3587 3.6075 24.3516 3.09782 24.2166 2.61494C24.0816 2.13205 23.8234 1.69256 23.4673 1.33956ZM5.46199 12.3806L3.79067 10.7112C3.40149 10.3314 3.12873 9.84844 3.00439 9.31906C2.88005 8.78967 2.9093 8.2358 3.0887 7.72245C3.26263 7.1958 3.58417 6.73019 4.01507 6.38099C4.44596 6.03179 4.96809 5.8137 5.51935 5.75265L20.9209 2.51016L6.31272 17.1203V14.4418C6.31419 14.059 6.23976 13.6798 6.09373 13.326C5.94771 12.9722 5.73299 12.6508 5.46199 12.3806ZM19.0454 19.3517C18.9708 19.8887 18.7479 20.3943 18.4019 20.8117C18.0559 21.229 17.6003 21.5417 17.0865 21.7146C16.5726 21.8875 16.0207 21.9137 15.4927 21.7903C14.9648 21.667 14.4817 21.3989 14.0976 21.0162L12.4253 19.3439C12.1554 19.0725 11.8343 18.8573 11.4807 18.7108C11.1271 18.5642 10.7479 18.4893 10.3651 18.4902H7.68652L22.2967 3.88494L19.0454 19.3517Z" fill="white"/>
</g>
<defs>
<clipPath id="clip0_177_4615">
<rect width="23.3343" height="23.3343" fill="white" transform="translate(0.990234 0.481995)"/>
</clipPath>
</defs>
</svg>
