<svg width="23" height="24" viewBox="0 0 23 24" fill="none" xmlns="http://www.w3.org/2000/svg">
<g clip-path="url(#clip0_177_4610)">
<g clip-path="url(#clip1_177_4610)">
<path d="M7.18278 21.8717H5.23826C4.46468 21.8717 3.72278 21.5644 3.17578 21.0174C2.62878 20.4704 2.32148 19.7285 2.32148 18.955V5.3433C2.32148 4.56972 2.62878 3.82783 3.17578 3.28082C3.72278 2.73382 4.46468 2.42652 5.23826 2.42652H7.18278C7.44064 2.42652 7.68794 2.32408 7.87027 2.14175C8.05261 1.95941 8.15504 1.71212 8.15504 1.45426C8.15504 1.1964 8.05261 0.949098 7.87027 0.766763C7.68794 0.584429 7.44064 0.481995 7.18278 0.481995H5.23826C3.94943 0.483538 2.71384 0.996206 1.8025 1.90754C0.891164 2.81888 0.378497 4.05448 0.376953 5.3433L0.376953 18.955C0.378497 20.2438 0.891164 21.4794 1.8025 22.3907C2.71384 23.3021 3.94943 23.8147 5.23826 23.8163H7.18278C7.44064 23.8163 7.68794 23.7138 7.87027 23.5315C8.05261 23.3492 8.15504 23.1019 8.15504 22.844C8.15504 22.5861 8.05261 22.3388 7.87027 22.1565C7.68794 21.9742 7.44064 21.8717 7.18278 21.8717Z" fill="white"/>
<path d="M22.739 11.1771L7.3996 11.2082C7.48487 11.0498 7.59152 10.9039 7.71655 10.7745L11.488 7.00314C11.5808 6.91345 11.6549 6.80617 11.7058 6.68755C11.7568 6.56893 11.7836 6.44135 11.7847 6.31225C11.7859 6.18316 11.7613 6.05513 11.7124 5.93564C11.6635 5.81615 11.5913 5.7076 11.5 5.61631C11.4087 5.52502 11.3002 5.45283 11.1807 5.40394C11.0612 5.35506 10.9332 5.33046 10.8041 5.33158C10.675 5.3327 10.5474 5.35952 10.4288 5.41048C10.3101 5.46143 10.2029 5.5355 10.1132 5.62836L6.33983 9.39976C5.61075 10.1291 5.20117 11.1181 5.20117 12.1493C5.20117 13.1806 5.61075 14.1696 6.33983 14.8989L10.1112 18.6703C10.2009 18.7631 10.3082 18.8372 10.4268 18.8882C10.5454 18.9391 10.673 18.9659 10.8021 18.9671C10.9312 18.9682 11.0592 18.9436 11.1787 18.8947C11.2982 18.8458 11.4068 18.7736 11.4981 18.6823C11.5893 18.591 11.6615 18.4825 11.7104 18.363C11.7593 18.2435 11.7839 18.1155 11.7828 17.9864C11.7817 17.8573 11.7548 17.7297 11.7039 17.6111C11.6529 17.4925 11.5789 17.3852 11.486 17.2955L7.71461 13.5241C7.6058 13.412 7.51081 13.2874 7.43168 13.1527L22.739 13.1216C22.9968 13.1216 23.2441 13.0191 23.4265 12.8368C23.6088 12.6545 23.7112 12.4072 23.7112 12.1493C23.7112 11.8915 23.6088 11.6442 23.4265 11.4618C23.2441 11.2795 22.9968 11.1771 22.739 11.1771Z" fill="white"/>
</g>
</g>
<defs>
<clipPath id="clip0_177_4610">
<rect width="22.2972" height="23.3343" fill="white" transform="translate(0.5625 0.481995)"/>
</clipPath>
<clipPath id="clip1_177_4610">
<rect width="23.3343" height="23.3343" fill="white" transform="translate(0.376953 0.481995)"/>
</clipPath>
</defs>
</svg>
