<svg width="14" height="14" viewBox="0 0 14 14" fill="none" xmlns="http://www.w3.org/2000/svg">
<g clip-path="url(#clip0_2068_2414)">
<path d="M13.3086 12.8642C13.2507 13.1237 13.1718 13.3688 13.0014 13.5846C12.8569 13.7705 12.6532 13.8998 12.4251 13.9506C11.9983 14.0524 11.5884 14.0064 11.2351 13.7234C11.0878 13.6054 10.9659 13.454 10.8372 13.3133C10.7003 13.1638 10.5721 13.0061 10.4346 12.8571C10.1354 12.5329 9.83157 12.2131 9.53189 11.8894C9.18941 11.5194 8.84942 11.147 8.50828 10.7757C8.27894 10.5261 8.04957 10.2765 7.82018 10.027C7.5085 9.68644 7.19714 9.34561 6.88609 9.00449C6.8604 8.97641 6.83159 8.95125 6.78489 8.90599C6.68202 9.01416 6.57875 9.11874 6.47999 9.22751C6.32663 9.39642 6.1789 9.5706 6.02425 9.73826C5.62195 10.1744 5.21656 10.6077 4.81364 11.0433C4.60382 11.2701 4.39715 11.4999 4.18814 11.7275C3.83862 12.1081 3.48873 12.4884 3.13849 12.8683C2.92074 13.1052 2.68003 13.3251 2.49158 13.584C2.15016 14.053 1.26578 14.111 0.822639 13.8036C0.479662 13.5657 0.336869 13.2128 0.311488 12.8071C0.28484 12.3811 0.443658 12.0222 0.728112 11.7157C1.13769 11.2743 1.54755 10.8331 1.95768 10.3922C2.17062 10.1622 2.38055 9.92936 2.59255 9.69846C2.93935 9.32075 3.28643 8.9433 3.63379 8.56611C3.84579 8.33521 4.05654 8.10313 4.26851 7.8722C4.50351 7.61617 4.73983 7.36138 4.97398 7.10456C5.00165 7.06945 5.02656 7.03219 5.04849 6.99314C4.75255 6.67431 4.46348 6.36413 4.17579 6.05263C3.82505 5.67285 3.47496 5.29246 3.12552 4.91146C2.91641 4.68374 2.70888 4.45453 2.49977 4.22681C2.1501 3.84603 1.80008 3.46557 1.44972 3.08543C1.23187 2.8484 1.0214 2.60396 0.795856 2.37472C0.25649 1.82649 0.265995 1.00651 0.644205 0.51289C0.964151 0.0953118 1.47921 -0.109934 1.94888 0.0594876C2.18128 0.137517 2.38571 0.283478 2.53641 0.478994C2.65045 0.630977 2.79177 0.762027 2.92169 0.901691C3.06032 1.05073 3.20002 1.19875 3.33893 1.34752C3.73806 1.77498 4.13701 2.20262 4.53578 2.63043C4.74318 2.85365 4.94705 3.08024 5.15378 3.3041C5.51012 3.68996 5.86846 4.07392 6.22395 4.46057C6.41525 4.66864 6.60236 4.88066 6.80018 5.1007C6.98762 4.90153 7.16617 4.71559 7.34033 4.52552C7.47155 4.3823 7.59411 4.23091 7.72586 4.08821C8.02516 3.76406 8.32887 3.44409 8.6287 3.12044C8.98006 2.74118 9.33023 2.36079 9.67921 1.97927C9.88832 1.75155 10.0968 1.52323 10.3046 1.29431C10.563 1.00879 10.8102 0.712202 11.0797 0.437933C11.4058 0.105939 11.8358 -0.0873118 12.298 0.0826535C12.8891 0.299959 13.2074 0.794182 13.1892 1.44104C13.1787 1.81427 13.0255 2.12285 12.7737 2.3889C12.4735 2.70604 12.1753 3.02511 11.8791 3.34608C11.6515 3.59129 11.4262 3.83858 11.2 4.08509C10.8679 4.44702 10.5359 4.80901 10.2039 5.17107C9.869 5.53617 9.53413 5.90132 9.19932 6.26653C8.98573 6.50079 8.77508 6.7378 8.55578 6.98173C8.60251 7.0389 8.64682 7.09961 8.69758 7.15416C9.10754 7.59478 9.51809 8.03483 9.92922 8.47432C10.1309 8.69123 10.3286 8.91195 10.5297 9.12943C10.8893 9.51834 11.2495 9.90667 11.6103 10.2944C11.832 10.5337 12.0533 10.7735 12.274 11.0137C12.5037 11.2628 12.7401 11.506 12.9609 11.7629C13.127 11.9525 13.2388 12.1845 13.284 12.4338C13.2903 12.4579 13.2985 12.4814 13.3086 12.5041V12.8642Z" fill="#F2F2F2"/>
</g>
<defs>
<clipPath id="clip0_2068_2414">
<rect width="13" height="14" fill="white" transform="translate(0.308594)"/>
</clipPath>
</defs>
</svg>
