<svg width="30" height="30" viewBox="0 0 30 30" fill="none" xmlns="http://www.w3.org/2000/svg">
<g clip-path="url(#clip0_182_2411)">
<path d="M30.0011 14.3751C29.9981 13.5323 29.8048 12.7011 29.4355 11.9435C29.0662 11.186 28.5306 10.5216 27.8686 10.0001C28.7845 9.27807 29.4521 8.28822 29.7785 7.1686C30.1048 6.04897 30.0735 4.85541 29.689 3.75441C29.3045 2.65341 28.5859 1.69989 27.6335 1.02687C26.681 0.353841 25.5423 -0.00512117 24.3761 5.52063e-05H5.62611C4.45991 -0.00512117 3.32117 0.353841 2.36876 1.02687C1.41634 1.69989 0.697752 2.65341 0.313228 3.75441C-0.0712954 4.85541 -0.102573 6.04897 0.223758 7.1686C0.550089 8.28822 1.21775 9.27807 2.13361 10.0001C1.46929 10.5195 0.931995 11.1834 0.562471 11.9415C0.192947 12.6995 0.000901987 13.5317 0.000901987 14.3751C0.000901987 15.2184 0.192947 16.0506 0.562471 16.8086C0.931995 17.5667 1.46929 18.2306 2.13361 18.7501C1.21775 19.472 0.550089 20.4619 0.223758 21.5815C-0.102573 22.7011 -0.0712954 23.8947 0.313228 24.9957C0.697752 26.0967 1.41634 27.0502 2.36876 27.7232C3.32117 28.3963 4.45991 28.7552 5.62611 28.7501H24.3761C25.5423 28.7552 26.681 28.3963 27.6335 27.7232C28.5859 27.0502 29.3045 26.0967 29.689 24.9957C30.0735 23.8947 30.1048 22.7011 29.7785 21.5815C29.4521 20.4619 28.7845 19.472 27.8686 18.7501C28.5306 18.2285 29.0662 17.5641 29.4355 16.8066C29.8048 16.049 29.9981 15.2178 30.0011 14.3751ZM2.50111 5.62506C2.50111 4.79625 2.83035 4.0014 3.4164 3.41535C4.00245 2.8293 4.79731 2.50006 5.62611 2.50006H6.25111V3.75006C6.25111 4.08158 6.38281 4.39952 6.61723 4.63394C6.85165 4.86836 7.16959 5.00006 7.50111 5.00006C7.83263 5.00006 8.15057 4.86836 8.385 4.63394C8.61942 4.39952 8.75111 4.08158 8.75111 3.75006V2.50006H11.2511V3.75006C11.2511 4.08158 11.3828 4.39952 11.6172 4.63394C11.8516 4.86836 12.1696 5.00006 12.5011 5.00006C12.8326 5.00006 13.1506 4.86836 13.385 4.63394C13.6194 4.39952 13.7511 4.08158 13.7511 3.75006V2.50006H24.3761C25.2049 2.50006 25.9998 2.8293 26.5858 3.41535C27.1719 4.0014 27.5011 4.79625 27.5011 5.62506C27.5011 6.45386 27.1719 7.24871 26.5858 7.83476C25.9998 8.42082 25.2049 8.75006 24.3761 8.75006H5.62611C4.79731 8.75006 4.00245 8.42082 3.4164 7.83476C2.83035 7.24871 2.50111 6.45386 2.50111 5.62506ZM27.5011 23.1251C27.5011 23.9539 27.1719 24.7487 26.5858 25.3348C25.9998 25.9208 25.2049 26.2501 24.3761 26.2501H5.62611C4.79731 26.2501 4.00245 25.9208 3.4164 25.3348C2.83035 24.7487 2.50111 23.9539 2.50111 23.1251C2.50111 22.2963 2.83035 21.5014 3.4164 20.9153C4.00245 20.3293 4.79731 20.0001 5.62611 20.0001H6.25111V21.2501C6.25111 21.5816 6.38281 21.8995 6.61723 22.1339C6.85165 22.3684 7.16959 22.5001 7.50111 22.5001C7.83263 22.5001 8.15057 22.3684 8.385 22.1339C8.61942 21.8995 8.75111 21.5816 8.75111 21.2501V20.0001H11.2511V21.2501C11.2511 21.5816 11.3828 21.8995 11.6172 22.1339C11.8516 22.3684 12.1696 22.5001 12.5011 22.5001C12.8326 22.5001 13.1506 22.3684 13.385 22.1339C13.6194 21.8995 13.7511 21.5816 13.7511 21.2501V20.0001H24.3761C25.2049 20.0001 25.9998 20.3293 26.5858 20.9153C27.1719 21.5014 27.5011 22.2963 27.5011 23.1251ZM5.62611 17.5001C4.79731 17.5001 4.00245 17.1708 3.4164 16.5848C2.83035 15.9987 2.50111 15.2039 2.50111 14.3751C2.50111 13.5463 2.83035 12.7514 3.4164 12.1653C4.00245 11.5793 4.79731 11.2501 5.62611 11.2501H6.25111V12.5001C6.25111 12.8316 6.38281 13.1495 6.61723 13.3839C6.85165 13.6184 7.16959 13.7501 7.50111 13.7501C7.83263 13.7501 8.15057 13.6184 8.385 13.3839C8.61942 13.1495 8.75111 12.8316 8.75111 12.5001V11.2501H11.2511V12.5001C11.2511 12.8316 11.3828 13.1495 11.6172 13.3839C11.8516 13.6184 12.1696 13.7501 12.5011 13.7501C12.8326 13.7501 13.1506 13.6184 13.385 13.3839C13.6194 13.1495 13.7511 12.8316 13.7511 12.5001V11.2501H24.3761C25.2049 11.2501 25.9998 11.5793 26.5858 12.1653C27.1719 12.7514 27.5011 13.5463 27.5011 14.3751C27.5011 15.2039 27.1719 15.9987 26.5858 16.5848C25.9998 17.1708 25.2049 17.5001 24.3761 17.5001H5.62611Z" fill="#374957"/>
</g>
<defs>
<clipPath id="clip0_182_2411">
<rect width="30" height="30" fill="white"/>
</clipPath>
</defs>
</svg>
