<svg width="32" height="32" viewBox="0 0 32 32" fill="none" xmlns="http://www.w3.org/2000/svg">
<g clip-path="url(#clip0_182_2407)">
<path d="M32.0001 18.6747C31.9985 18.1155 31.8789 17.5629 31.6492 17.0531C31.4194 16.5432 31.0847 16.0876 30.6668 15.716V13.3333C30.6629 9.79831 29.2569 6.40917 26.7573 3.90953C24.2576 1.40989 20.8685 0.00388213 17.3334 0L14.6668 0C11.1318 0.00388213 7.74262 1.40989 5.24298 3.90953C2.74333 6.40917 1.33733 9.79831 1.33345 13.3333V15.7827C0.919135 16.1737 0.589056 16.6451 0.363455 17.1682C0.137853 17.6913 0.0214844 18.255 0.0214844 18.8247C0.0214844 19.3943 0.137853 19.958 0.363455 20.4811C0.589056 21.0042 0.919135 21.4757 1.33345 21.8667V22.6667C1.33627 25.1412 2.32051 27.5135 4.07024 29.2632C5.81996 31.0129 8.19229 31.9972 10.6668 32H21.3334C23.8079 31.9972 26.1803 31.0129 27.93 29.2632C29.6797 27.5135 30.664 25.1412 30.6668 22.6667V21.6347C31.0848 21.2629 31.4197 20.8071 31.6494 20.297C31.8792 19.7869 31.9987 19.2341 32.0001 18.6747ZM3.74945 20.2107C3.41699 20.1098 3.13113 19.8942 2.94278 19.6023C2.75444 19.3104 2.67583 18.9611 2.72097 18.6166C2.76611 18.2721 2.93206 17.9549 3.18927 17.7213C3.44648 17.4878 3.77823 17.3531 4.12545 17.3413H28.0001C28.3537 17.3413 28.6929 17.4818 28.9429 17.7319C29.193 17.9819 29.3334 18.321 29.3334 18.6747C29.3334 19.0283 29.193 19.3674 28.9429 19.6175C28.6929 19.8675 28.3537 20.008 28.0001 20.008H22.6668C20.0588 20.008 17.3614 21.0587 14.1814 23.316C13.5412 23.7607 12.7803 23.999 12.0008 23.999C11.2213 23.999 10.4604 23.7607 9.82011 23.316C9.51611 23.1 9.22411 22.8747 8.93078 22.6493C7.47833 21.3487 5.67736 20.5011 3.74945 20.2107ZM4.00011 13.3333C4.00329 10.5053 5.12812 7.79407 7.12782 5.79437C9.12752 3.79467 11.8388 2.66984 14.6668 2.66667H17.3334C20.1614 2.66984 22.8727 3.79467 24.8724 5.79437C26.8721 7.79407 27.9969 10.5053 28.0001 13.3333V14.6747L4.00011 14.688V13.3333ZM21.3334 29.3333H10.6668C8.95902 29.3288 7.31829 28.6683 6.08373 27.4883C4.84917 26.3083 4.11517 24.6991 4.03345 22.9933C5.24367 23.3286 6.36229 23.9335 7.30545 24.7627C7.62411 25.0093 7.94411 25.2547 8.27745 25.4907C9.37033 26.25 10.6693 26.657 12.0001 26.657C13.3309 26.657 14.6299 26.25 15.7228 25.4907C17.6955 23.8647 20.1188 22.882 22.6668 22.6747H28.0001C27.998 24.4414 27.2947 26.135 26.0447 27.3835C24.7947 28.6321 23.1002 29.3333 21.3334 29.3333ZM12.0001 6.66667C12.0001 6.31305 12.1406 5.97391 12.3906 5.72386C12.6407 5.47381 12.9798 5.33333 13.3334 5.33333C13.6871 5.33333 14.0262 5.47381 14.2763 5.72386C14.5263 5.97391 14.6668 6.31305 14.6668 6.66667C14.6668 7.02029 14.5263 7.35943 14.2763 7.60948C14.0262 7.85952 13.6871 8 13.3334 8C12.9798 8 12.6407 7.85952 12.3906 7.60948C12.1406 7.35943 12.0001 7.02029 12.0001 6.66667ZM8.00011 10.6667C8.00011 10.313 8.14059 9.97391 8.39064 9.72386C8.64069 9.47381 8.97983 9.33333 9.33345 9.33333C9.68707 9.33333 10.0262 9.47381 10.2763 9.72386C10.5263 9.97391 10.6668 10.313 10.6668 10.6667C10.6668 11.0203 10.5263 11.3594 10.2763 11.6095C10.0262 11.8595 9.68707 12 9.33345 12C8.97983 12 8.64069 11.8595 8.39064 11.6095C8.14059 11.3594 8.00011 11.0203 8.00011 10.6667Z" fill="white"/>
</g>
<defs>
<clipPath id="clip0_182_2407">
<rect width="32" height="32" fill="white"/>
</clipPath>
</defs>
</svg>
