<svg width="30" height="30" viewBox="0 0 30 30" fill="none" xmlns="http://www.w3.org/2000/svg">
<g clip-path="url(#clip0_135_4900)">
<path d="M26.875 30.0005H3.125C2.71462 30.0005 2.30826 29.9197 1.92911 29.7626C1.54997 29.6056 1.20547 29.3754 0.915291 29.0852C0.625108 28.795 0.394922 28.4505 0.237876 28.0714C0.0808305 27.6922 0 27.2859 0 26.8755C0 26.0467 0.32924 25.2518 0.915291 24.6658C1.50134 24.0797 2.2962 23.7505 3.125 23.7505H26.875C27.2854 23.7505 27.6917 23.8313 28.0709 23.9884C28.45 24.1454 28.7945 24.3756 29.0847 24.6658C29.3749 24.956 29.6051 25.3005 29.7621 25.6796C29.9192 26.0587 30 26.4651 30 26.8755C30 27.2859 29.9192 27.6922 29.7621 28.0714C29.6051 28.4505 29.3749 28.795 29.0847 29.0852C28.7945 29.3754 28.45 29.6056 28.0709 29.7626C27.6917 29.9197 27.2854 30.0005 26.875 30.0005ZM30 17.5005C30 16.8374 29.7366 16.2016 29.2678 15.7327C28.7989 15.2639 28.163 15.0005 27.5 15.0005H2.5C1.83696 15.0005 1.20107 15.2639 0.732233 15.7327C0.263392 16.2016 0 16.8374 0 17.5005C0 18.1635 0.263392 18.7994 0.732233 19.2683C1.20107 19.7371 1.83696 20.0005 2.5 20.0005H27.5C28.163 20.0005 28.7989 19.7371 29.2678 19.2683C29.7366 18.7994 30 18.1635 30 17.5005ZM30 9.37549C30 8.87821 29.8025 8.40129 29.4508 8.04966C29.0992 7.69803 28.6223 7.50049 28.125 7.50049H1.875C1.37772 7.50049 0.900805 7.69803 0.549175 8.04966C0.197544 8.40129 0 8.87821 0 9.37549C0 9.87277 0.197544 10.3497 0.549175 10.7013C0.900805 11.0529 1.37772 11.2505 1.875 11.2505H28.125C28.6223 11.2505 29.0992 11.0529 29.4508 10.7013C29.8025 10.3497 30 9.87277 30 9.37549ZM30 2.50049C30 2.16897 29.8683 1.85103 29.6339 1.6166C29.3995 1.38218 29.0815 1.25049 28.75 1.25049H1.25C0.918479 1.25049 0.600537 1.38218 0.366117 1.6166C0.131696 1.85103 0 2.16897 0 2.50049C0 2.83201 0.131696 3.14995 0.366117 3.38437C0.600537 3.61879 0.918479 3.75049 1.25 3.75049H28.75C29.0815 3.75049 29.3995 3.61879 29.6339 3.38437C29.8683 3.14995 30 2.83201 30 2.50049Z" fill="white"/>
</g>
<defs>
<clipPath id="clip0_135_4900">
<rect width="30" height="30" fill="white"/>
</clipPath>
</defs>
</svg>
