<svg width="17" height="17" viewBox="0 0 17 17" fill="none" xmlns="http://www.w3.org/2000/svg">
<g clip-path="url(#clip0_135_4896)">
<path d="M16.1876 0.813134C15.706 0.332315 15.0533 0.0622559 14.3728 0.0622559C13.6923 0.0622559 13.0396 0.332315 12.5581 0.813134L1.03772 12.3335C0.707814 12.6615 0.446234 13.0517 0.268113 13.4815C0.0899931 13.9113 -0.0011319 14.3722 1.06117e-05 14.8374V16.2916C1.06117e-05 16.4795 0.0746384 16.6597 0.207477 16.7925C0.340315 16.9253 0.520482 17 0.708344 17H2.16255C2.62776 17.0013 3.08861 16.9103 3.51841 16.7323C3.94822 16.5543 4.33845 16.2928 4.66651 15.963L16.1876 4.44193C16.6682 3.9604 16.9381 3.30786 16.9381 2.62753C16.9381 1.9472 16.6682 1.29466 16.1876 0.813134ZM3.66493 14.9614C3.26543 15.3582 2.72565 15.5817 2.16255 15.5833H1.41668V14.8374C1.41596 14.5583 1.47062 14.2818 1.5775 14.0239C1.68437 13.766 1.84133 13.5319 2.0393 13.3351L10.7823 4.59209L12.4114 6.22126L3.66493 14.9614ZM15.1853 3.44034L13.4102 5.21613L11.781 3.59051L13.5568 1.81472C13.6638 1.70798 13.7907 1.62335 13.9304 1.56567C14.0701 1.508 14.2197 1.47839 14.3709 1.47856C14.522 1.47872 14.6716 1.50865 14.8111 1.56663C14.9507 1.62461 15.0775 1.70952 15.1842 1.81649C15.2909 1.92346 15.3756 2.05041 15.4332 2.19009C15.4909 2.32976 15.5205 2.47943 15.5204 2.63055C15.5202 2.78167 15.4903 2.93128 15.4323 3.07083C15.3743 3.21038 15.2894 3.33714 15.1824 3.44388L15.1853 3.44034Z" fill="white"/>
</g>
<defs>
<clipPath id="clip0_135_4896">
<rect width="17" height="17" fill="white"/>
</clipPath>
</defs>
</svg>
