<svg width="30" height="30" viewBox="0 0 30 30" fill="none" xmlns="http://www.w3.org/2000/svg">
<g clip-path="url(#clip0_182_2423)">
<path d="M1.25 5.93782H4.67C4.9383 6.92499 5.52397 7.79644 6.33666 8.41774C7.14935 9.03903 8.1439 9.37565 9.16687 9.37565C10.1898 9.37565 11.1844 9.03903 11.9971 8.41774C12.8098 7.79644 13.3955 6.92499 13.6637 5.93782H28.75C29.0815 5.93782 29.3995 5.80613 29.6339 5.57171C29.8683 5.33729 30 5.01934 30 4.68782C30 4.3563 29.8683 4.03836 29.6339 3.80394C29.3995 3.56952 29.0815 3.43782 28.75 3.43782H13.6637C13.3955 2.45066 12.8098 1.57921 11.9971 0.95791C11.1844 0.336614 10.1898 0 9.16687 0C8.1439 0 7.14935 0.336614 6.33666 0.95791C5.52397 1.57921 4.9383 2.45066 4.67 3.43782H1.25C0.918479 3.43782 0.600537 3.56952 0.366117 3.80394C0.131696 4.03836 0 4.3563 0 4.68782C0 5.01934 0.131696 5.33729 0.366117 5.57171C0.600537 5.80613 0.918479 5.93782 1.25 5.93782ZM9.16625 2.50032C9.5989 2.50032 10.0218 2.62862 10.3816 2.86898C10.7413 3.10935 11.0217 3.45099 11.1872 3.8507C11.3528 4.25042 11.3961 4.69025 11.3117 5.11458C11.2273 5.53892 11.019 5.92869 10.713 6.23462C10.4071 6.54055 10.0173 6.74889 9.59301 6.83329C9.16868 6.9177 8.72884 6.87438 8.32913 6.70881C7.92942 6.54324 7.58778 6.26287 7.34741 5.90313C7.10704 5.5434 6.97875 5.12047 6.97875 4.68782C6.97941 4.10787 7.21009 3.55185 7.62018 3.14176C8.03028 2.73167 8.58629 2.50099 9.16625 2.50032Z" fill="#374957"/>
<path d="M28.75 13.7489H25.33C25.0621 12.7615 24.4767 11.8897 23.6641 11.2681C22.8515 10.6466 21.8568 10.3098 20.8337 10.3098C19.8107 10.3098 18.816 10.6466 18.0034 11.2681C17.1908 11.8897 16.6054 12.7615 16.3375 13.7489H1.25C0.918479 13.7489 0.600537 13.8805 0.366117 14.115C0.131696 14.3494 0 14.6673 0 14.9988C0 15.3304 0.131696 15.6483 0.366117 15.8827C0.600537 16.1171 0.918479 16.2488 1.25 16.2488H16.3375C16.6054 17.2362 17.1908 18.108 18.0034 18.7296C18.816 19.3511 19.8107 19.6879 20.8337 19.6879C21.8568 19.6879 22.8515 19.3511 23.6641 18.7296C24.4767 18.108 25.0621 17.2362 25.33 16.2488H28.75C29.0815 16.2488 29.3995 16.1171 29.6339 15.8827C29.8683 15.6483 30 15.3304 30 14.9988C30 14.6673 29.8683 14.3494 29.6339 14.115C29.3995 13.8805 29.0815 13.7489 28.75 13.7489ZM20.8337 17.1863C20.4011 17.1863 19.9782 17.058 19.6184 16.8177C19.2587 16.5773 18.9783 16.2357 18.8128 15.836C18.6472 15.4363 18.6039 14.9964 18.6883 14.5721C18.7727 14.1478 18.981 13.758 19.287 13.4521C19.5929 13.1461 19.9827 12.9378 20.407 12.8534C20.8313 12.769 21.2712 12.8123 21.6709 12.9779C22.0706 13.1434 22.4122 13.4238 22.6526 13.7835C22.893 14.1433 23.0212 14.5662 23.0212 14.9988C23.0206 15.5788 22.7899 16.1348 22.3798 16.5449C21.9697 16.955 21.4137 17.1857 20.8337 17.1863Z" fill="#374957"/>
<path d="M28.75 24.0628H13.6637C13.3955 23.0756 12.8098 22.2042 11.9971 21.5829C11.1844 20.9616 10.1898 20.625 9.16687 20.625C8.1439 20.625 7.14935 20.9616 6.33666 21.5829C5.52397 22.2042 4.9383 23.0756 4.67 24.0628H1.25C0.918479 24.0628 0.600537 24.1945 0.366117 24.4289C0.131696 24.6633 0 24.9813 0 25.3128C0 25.6443 0.131696 25.9623 0.366117 26.1967C0.600537 26.4311 0.918479 26.5628 1.25 26.5628H4.67C4.9383 27.55 5.52397 28.4214 6.33666 29.0427C7.14935 29.664 8.1439 30.0006 9.16687 30.0006C10.1898 30.0006 11.1844 29.664 11.9971 29.0427C12.8098 28.4214 13.3955 27.55 13.6637 26.5628H28.75C29.0815 26.5628 29.3995 26.4311 29.6339 26.1967C29.8683 25.9623 30 25.6443 30 25.3128C30 24.9813 29.8683 24.6633 29.6339 24.4289C29.3995 24.1945 29.0815 24.0628 28.75 24.0628ZM9.16625 27.5003C8.7336 27.5003 8.31067 27.372 7.95094 27.1316C7.59121 26.8913 7.31083 26.5496 7.14526 26.1499C6.9797 25.7502 6.93638 25.3104 7.02078 24.886C7.10519 24.4617 7.31353 24.0719 7.61945 23.766C7.92538 23.4601 8.31516 23.2518 8.73949 23.1673C9.16382 23.0829 9.60366 23.1263 10.0034 23.2918C10.4031 23.4574 10.7447 23.7378 10.9851 24.0975C11.2255 24.4572 11.3538 24.8802 11.3538 25.3128C11.3528 25.8927 11.122 26.4485 10.712 26.8585C10.3019 27.2685 9.74611 27.4993 9.16625 27.5003Z" fill="#374957"/>
</g>
<defs>
<clipPath id="clip0_182_2423">
<rect width="30" height="30" fill="white"/>
</clipPath>
</defs>
</svg>
