<svg width="29" height="30" viewBox="0 0 29 30" fill="none" xmlns="http://www.w3.org/2000/svg">
<path d="M25.587 16.4687C25.6491 16 25.6801 15.5156 25.6801 15C25.6801 14.5 25.6491 14 25.5714 13.5312L28.7236 11.0625C29.0031 10.8437 29.0807 10.4219 28.9099 10.1094L25.9286 4.92188C25.7422 4.57813 25.354 4.46875 25.0124 4.57812L21.3012 6.07812C20.5248 5.48437 19.7019 4.98437 18.7857 4.60937L18.2267 0.640625C18.1646 0.265625 17.854 0 17.4814 0H11.5186C11.146 0 10.8509 0.265625 10.7888 0.640625L10.2298 4.60937C9.31366 4.98437 8.47516 5.5 7.71429 6.07812L4.00311 4.57812C3.66149 4.45312 3.27329 4.57813 3.08696 4.92188L0.121119 10.1094C-0.0652168 10.4375 -0.00310525 10.8437 0.307454 11.0625L3.45963 13.5312C3.38199 14 3.31988 14.5156 3.31988 15C3.31988 15.4844 3.35093 16 3.42857 16.4687L0.276398 18.9375C-0.00310522 19.1562 -0.0807448 19.5781 0.0900627 19.8906L3.07143 25.0781C3.25776 25.4219 3.64596 25.5312 3.98758 25.4219L7.69876 23.9219C8.47516 24.5156 9.29814 25.0156 10.2143 25.3906L10.7733 29.3594C10.8509 29.7344 11.146 30 11.5186 30H17.4814C17.854 30 18.1646 29.7344 18.2112 29.3594L18.7702 25.3906C19.6863 25.0156 20.5248 24.5156 21.2857 23.9219L24.9969 25.4219C25.3385 25.5469 25.7267 25.4219 25.913 25.0781L28.8944 19.8906C29.0807 19.5469 29.0031 19.1562 28.7081 18.9375L25.587 16.4687ZM14.5 20.625C11.4255 20.625 8.90994 18.0937 8.90994 15C8.90994 11.9062 11.4255 9.375 14.5 9.375C17.5745 9.375 20.0901 11.9062 20.0901 15C20.0901 18.0937 17.5745 20.625 14.5 20.625Z" fill="#5F5757"/>
</svg>
