<svg width="30" height="30" viewBox="0 0 30 30" fill="none" xmlns="http://www.w3.org/2000/svg">
<g clip-path="url(#clip0_182_2414)">
<path d="M30 12.5001C30.0001 12.4089 29.99 12.3179 29.97 12.2289L28.345 4.89386C28.0431 3.50165 27.2717 2.25558 26.1601 1.36458C25.0486 0.473582 23.6645 -0.00817048 22.24 0.000104861H7.76C6.33632 -0.00702052 4.95341 0.475257 3.84291 1.36616C2.73241 2.25707 1.96175 3.5025 1.66 4.89386L0.0300017 12.2289C0.0100118 12.3179 -4.95749e-05 12.4089 1.71175e-06 12.5001V13.7501C-0.0010068 14.9671 0.443653 16.1423 1.25 17.0539V23.7501C1.25199 25.4071 1.9111 26.9957 3.08278 28.1673C4.25445 29.339 5.84301 29.9981 7.5 30.0001H22.5C24.157 29.9981 25.7456 29.339 26.9172 28.1673C28.0889 26.9957 28.748 25.4071 28.75 23.7501V17.0539C29.5564 16.1423 30.001 14.9671 30 13.7501V12.5001ZM2.5 12.6364L4.1 5.43636C4.28131 4.60167 4.74377 3.85457 5.41002 3.32008C6.07626 2.78558 6.90586 2.49611 7.76 2.50011H8.75V6.25011C8.75 6.58163 8.8817 6.89957 9.11612 7.13399C9.35054 7.36841 9.66848 7.50011 10 7.50011C10.3315 7.50011 10.6495 7.36841 10.8839 7.13399C11.1183 6.89957 11.25 6.58163 11.25 6.25011V2.50011H18.75V6.25011C18.75 6.58163 18.8817 6.89957 19.1161 7.13399C19.3505 7.36841 19.6685 7.50011 20 7.50011C20.3315 7.50011 20.6495 7.36841 20.8839 7.13399C21.1183 6.89957 21.25 6.58163 21.25 6.25011V2.50011H22.24C23.0941 2.49611 23.9237 2.78558 24.59 3.32008C25.2562 3.85457 25.7187 4.60167 25.9 5.43636L27.5 12.6364V13.7501C27.5 14.4131 27.2366 15.049 26.7678 15.5179C26.2989 15.9867 25.663 16.2501 25 16.2501H23.75C23.087 16.2501 22.4511 15.9867 21.9822 15.5179C21.5134 15.049 21.25 14.4131 21.25 13.7501C21.25 13.4186 21.1183 13.1006 20.8839 12.8662C20.6495 12.6318 20.3315 12.5001 20 12.5001C19.6685 12.5001 19.3505 12.6318 19.1161 12.8662C18.8817 13.1006 18.75 13.4186 18.75 13.7501C18.75 14.4131 18.4866 15.049 18.0178 15.5179C17.5489 15.9867 16.913 16.2501 16.25 16.2501H13.75C13.087 16.2501 12.4511 15.9867 11.9822 15.5179C11.5134 15.049 11.25 14.4131 11.25 13.7501C11.25 13.4186 11.1183 13.1006 10.8839 12.8662C10.6495 12.6318 10.3315 12.5001 10 12.5001C9.66848 12.5001 9.35054 12.6318 9.11612 12.8662C8.8817 13.1006 8.75 13.4186 8.75 13.7501C8.75 14.4131 8.48661 15.049 8.01777 15.5179C7.54893 15.9867 6.91304 16.2501 6.25 16.2501H5C4.33696 16.2501 3.70108 15.9867 3.23223 15.5179C2.76339 15.049 2.5 14.4131 2.5 13.7501V12.6364ZM22.5 27.5001H7.5C6.50544 27.5001 5.55161 27.105 4.84835 26.4018C4.14509 25.6985 3.75 24.7447 3.75 23.7501V18.5914C4.15825 18.6971 4.57829 18.7504 5 18.7501H6.25C6.95977 18.7505 7.66144 18.5994 8.30813 18.3068C8.95482 18.0143 9.53162 17.5871 10 17.0539C10.4684 17.5871 11.0452 18.0143 11.6919 18.3068C12.3386 18.5994 13.0402 18.7505 13.75 18.7501H16.25C16.9598 18.7505 17.6614 18.5994 18.3081 18.3068C18.9548 18.0143 19.5316 17.5871 20 17.0539C20.4684 17.5871 21.0452 18.0143 21.6919 18.3068C22.3386 18.5994 23.0402 18.7505 23.75 18.7501H25C25.4217 18.7504 25.8418 18.6971 26.25 18.5914V23.7501C26.25 24.7447 25.8549 25.6985 25.1517 26.4018C24.4484 27.105 23.4946 27.5001 22.5 27.5001Z" fill="#374957"/>
</g>
<defs>
<clipPath id="clip0_182_2414">
<rect width="30" height="30" fill="white"/>
</clipPath>
</defs>
</svg>
