<svg width="32" height="30" viewBox="0 0 32 30" fill="none" xmlns="http://www.w3.org/2000/svg">
<path d="M10.75 2.125C11.8007 2.125 12.8278 2.43657 13.7015 3.02032C14.5751 3.60406 15.256 4.43376 15.6581 5.40449C16.0602 6.37523 16.1654 7.44339 15.9604 8.47392C15.7554 9.50444 15.2495 10.451 14.5065 11.194C13.7635 11.937 12.8169 12.4429 11.7864 12.6479C10.7559 12.8529 9.68773 12.7477 8.71699 12.3456C7.74626 11.9435 6.91656 11.2626 6.33282 10.389C5.74907 9.51533 5.4375 8.48821 5.4375 7.4375C5.4375 6.02854 5.99721 4.67728 6.99349 3.681C7.98978 2.68471 9.34104 2.125 10.75 2.125ZM10.75 0C9.279 0 7.84104 0.436202 6.61795 1.25344C5.39486 2.07069 4.44157 3.23227 3.87865 4.59129C3.31572 5.95032 3.16843 7.44575 3.45541 8.88848C3.74239 10.3312 4.45074 11.6565 5.49089 12.6966C6.53105 13.7368 7.85628 14.4451 9.29902 14.7321C10.7417 15.0191 12.2372 14.8718 13.5962 14.3089C14.9552 13.7459 16.1168 12.7926 16.9341 11.5696C17.7513 10.3465 18.1875 8.9085 18.1875 7.4375C18.1875 5.46495 17.4039 3.57319 16.0091 2.17839C14.6143 0.783591 12.7225 0 10.75 0ZM21.375 29.75H19.25V24.4375C19.25 23.0285 18.6903 21.6773 17.694 20.681C16.6977 19.6847 15.3465 19.125 13.9375 19.125H7.5625C6.15354 19.125 4.80228 19.6847 3.806 20.681C2.80971 21.6773 2.25 23.0285 2.25 24.4375V29.75H0.125V24.4375C0.125 22.465 0.908591 20.5732 2.30339 19.1784C3.69819 17.7836 5.58995 17 7.5625 17H13.9375C15.91 17 17.8018 17.7836 19.1966 19.1784C20.5914 20.5732 21.375 22.465 21.375 24.4375V29.75ZM21.375 2.125H32V4.25H21.375V2.125ZM21.375 7.4375H32V9.5625H21.375V7.4375ZM21.375 12.75H28.8125V14.875H21.375V12.75Z" fill="#F2F2F2"/>
</svg>
